<mxfile host="app.diagrams.net" modified="2023-05-02T21:06:25.557Z" agent="Mozilla/5.0 (Windows NT 10.0; Win64; x64) AppleWebKit/537.36 (KHTML, like Gecko) Chrome/112.0.0.0 Safari/537.36" etag="N9-4bSeea7NwWcWg8HCu" version="21.2.3" type="device">
  <diagram name="PÃ¡gina-1" id="QdA-1p3HR_LGYh6ALl9Q">
    <mxGraphModel dx="798" dy="410" grid="1" gridSize="10" guides="1" tooltips="1" connect="1" arrows="1" fold="1" page="1" pageScale="1" pageWidth="827" pageHeight="1169" math="0" shadow="0">
      <root>
        <mxCell id="0" />
        <mxCell id="1" parent="0" />
        <mxCell id="wffhdXwrpVQ_d5Xs4Mnd-1" value="0" style="rounded=0;whiteSpace=wrap;html=1;" parent="1" vertex="1">
          <mxGeometry x="280" y="340" width="70" height="60" as="geometry" />
        </mxCell>
        <mxCell id="wffhdXwrpVQ_d5Xs4Mnd-2" value="1" style="rounded=0;whiteSpace=wrap;html=1;" parent="1" vertex="1">
          <mxGeometry x="280" y="440" width="70" height="60" as="geometry" />
        </mxCell>
        <mxCell id="wffhdXwrpVQ_d5Xs4Mnd-3" value="2" style="rounded=0;whiteSpace=wrap;html=1;" parent="1" vertex="1">
          <mxGeometry x="280" y="550" width="70" height="60" as="geometry" />
        </mxCell>
        <mxCell id="wffhdXwrpVQ_d5Xs4Mnd-5" value="" style="endArrow=none;html=1;rounded=0;entryX=0.5;entryY=0;entryDx=0;entryDy=0;" parent="1" target="wffhdXwrpVQ_d5Xs4Mnd-1" edge="1">
          <mxGeometry width="50" height="50" relative="1" as="geometry">
            <mxPoint x="310" y="640" as="sourcePoint" />
            <mxPoint x="440" y="720" as="targetPoint" />
            <Array as="points">
              <mxPoint x="180" y="640" />
              <mxPoint x="180" y="290" />
              <mxPoint x="315" y="290" />
            </Array>
          </mxGeometry>
        </mxCell>
        <mxCell id="wffhdXwrpVQ_d5Xs4Mnd-6" value="" style="endArrow=none;html=1;rounded=0;" parent="1" edge="1">
          <mxGeometry width="50" height="50" relative="1" as="geometry">
            <mxPoint x="295" y="420" as="sourcePoint" />
            <mxPoint x="330" y="420" as="targetPoint" />
          </mxGeometry>
        </mxCell>
        <mxCell id="wffhdXwrpVQ_d5Xs4Mnd-8" value="" style="endArrow=none;html=1;rounded=0;exitX=1;exitY=0.5;exitDx=0;exitDy=0;entryX=0.048;entryY=0.5;entryDx=0;entryDy=0;entryPerimeter=0;" parent="1" source="wffhdXwrpVQ_d5Xs4Mnd-1" edge="1" target="wffhdXwrpVQ_d5Xs4Mnd-9">
          <mxGeometry width="50" height="50" relative="1" as="geometry">
            <mxPoint x="400" y="770" as="sourcePoint" />
            <mxPoint x="390" y="370" as="targetPoint" />
          </mxGeometry>
        </mxCell>
        <mxCell id="wffhdXwrpVQ_d5Xs4Mnd-9" value="not(RT). not(EH)" style="text;html=1;strokeColor=none;fillColor=none;align=center;verticalAlign=middle;whiteSpace=wrap;rounded=0;" parent="1" vertex="1">
          <mxGeometry x="374" y="355" width="126" height="30" as="geometry" />
        </mxCell>
        <mxCell id="wffhdXwrpVQ_d5Xs4Mnd-10" value="" style="endArrow=none;html=1;rounded=0;entryX=0.5;entryY=1;entryDx=0;entryDy=0;exitX=0.5;exitY=0;exitDx=0;exitDy=0;" parent="1" source="wffhdXwrpVQ_d5Xs4Mnd-2" target="wffhdXwrpVQ_d5Xs4Mnd-1" edge="1">
          <mxGeometry width="50" height="50" relative="1" as="geometry">
            <mxPoint x="320" y="440" as="sourcePoint" />
            <mxPoint x="440" y="720" as="targetPoint" />
          </mxGeometry>
        </mxCell>
        <mxCell id="wffhdXwrpVQ_d5Xs4Mnd-11" value="B1. not(B0)" style="text;html=1;strokeColor=none;fillColor=none;align=center;verticalAlign=middle;whiteSpace=wrap;rounded=0;" parent="1" vertex="1">
          <mxGeometry x="314" y="400" width="126" height="30" as="geometry" />
        </mxCell>
        <mxCell id="wffhdXwrpVQ_d5Xs4Mnd-12" value="Ativar T=5 s" style="text;html=1;strokeColor=none;fillColor=none;align=center;verticalAlign=middle;whiteSpace=wrap;rounded=0;" parent="1" vertex="1">
          <mxGeometry x="370" y="455" width="120" height="30" as="geometry" />
        </mxCell>
        <mxCell id="wffhdXwrpVQ_d5Xs4Mnd-16" value="" style="endArrow=none;html=1;rounded=0;exitX=1;exitY=0.5;exitDx=0;exitDy=0;" parent="1" edge="1">
          <mxGeometry width="50" height="50" relative="1" as="geometry">
            <mxPoint x="350" y="469.76" as="sourcePoint" />
            <mxPoint x="390" y="469.76" as="targetPoint" />
          </mxGeometry>
        </mxCell>
        <mxCell id="wffhdXwrpVQ_d5Xs4Mnd-17" value="(T/2/5s) . (not&amp;nbsp; B0)" style="text;html=1;strokeColor=none;fillColor=none;align=center;verticalAlign=middle;whiteSpace=wrap;rounded=0;" parent="1" vertex="1">
          <mxGeometry x="314" y="520" width="166" height="10" as="geometry" />
        </mxCell>
        <mxCell id="wffhdXwrpVQ_d5Xs4Mnd-18" value="" style="endArrow=none;html=1;rounded=0;" parent="1" edge="1">
          <mxGeometry width="50" height="50" relative="1" as="geometry">
            <mxPoint x="295" y="524.76" as="sourcePoint" />
            <mxPoint x="335" y="524.76" as="targetPoint" />
          </mxGeometry>
        </mxCell>
        <mxCell id="wffhdXwrpVQ_d5Xs4Mnd-19" value="" style="endArrow=none;html=1;rounded=0;entryX=0.5;entryY=1;entryDx=0;entryDy=0;exitX=0.5;exitY=0;exitDx=0;exitDy=0;" parent="1" source="wffhdXwrpVQ_d5Xs4Mnd-3" edge="1">
          <mxGeometry width="50" height="50" relative="1" as="geometry">
            <mxPoint x="315" y="530" as="sourcePoint" />
            <mxPoint x="315" y="500" as="targetPoint" />
          </mxGeometry>
        </mxCell>
        <mxCell id="wffhdXwrpVQ_d5Xs4Mnd-23" value="RT. EH" style="text;html=1;strokeColor=none;fillColor=none;align=center;verticalAlign=middle;whiteSpace=wrap;rounded=0;" parent="1" vertex="1">
          <mxGeometry x="370" y="565" width="120" height="30" as="geometry" />
        </mxCell>
        <mxCell id="wffhdXwrpVQ_d5Xs4Mnd-25" value="" style="endArrow=none;html=1;rounded=0;exitX=1;exitY=0.5;exitDx=0;exitDy=0;" parent="1" edge="1">
          <mxGeometry width="50" height="50" relative="1" as="geometry">
            <mxPoint x="350" y="579.8" as="sourcePoint" />
            <mxPoint x="390" y="580" as="targetPoint" />
          </mxGeometry>
        </mxCell>
        <mxCell id="ARCqItQjN_vqQXYxKfKU-2" value="" style="endArrow=none;html=1;rounded=0;entryX=0.5;entryY=1;entryDx=0;entryDy=0;" edge="1" parent="1" target="wffhdXwrpVQ_d5Xs4Mnd-3">
          <mxGeometry width="50" height="50" relative="1" as="geometry">
            <mxPoint x="315" y="640" as="sourcePoint" />
            <mxPoint x="190" y="520" as="targetPoint" />
          </mxGeometry>
        </mxCell>
        <mxCell id="ARCqItQjN_vqQXYxKfKU-4" value="" style="endArrow=none;html=1;rounded=0;exitX=0;exitY=0.25;exitDx=0;exitDy=0;" edge="1" parent="1" source="wffhdXwrpVQ_d5Xs4Mnd-11">
          <mxGeometry width="50" height="50" relative="1" as="geometry">
            <mxPoint x="320" y="410" as="sourcePoint" />
            <mxPoint x="180" y="408" as="targetPoint" />
          </mxGeometry>
        </mxCell>
        <mxCell id="ARCqItQjN_vqQXYxKfKU-6" value="" style="endArrow=none;html=1;rounded=0;exitX=0;exitY=0;exitDx=0;exitDy=0;" edge="1" parent="1" source="wffhdXwrpVQ_d5Xs4Mnd-17">
          <mxGeometry width="50" height="50" relative="1" as="geometry">
            <mxPoint x="310" y="520" as="sourcePoint" />
            <mxPoint x="180" y="520" as="targetPoint" />
          </mxGeometry>
        </mxCell>
        <mxCell id="ARCqItQjN_vqQXYxKfKU-7" value="S1.B0" style="text;html=1;strokeColor=none;fillColor=none;align=center;verticalAlign=middle;whiteSpace=wrap;rounded=0;" vertex="1" parent="1">
          <mxGeometry x="180" y="600" width="80" height="30" as="geometry" />
        </mxCell>
        <mxCell id="ARCqItQjN_vqQXYxKfKU-8" value="" style="endArrow=none;html=1;rounded=0;" edge="1" parent="1">
          <mxGeometry width="50" height="50" relative="1" as="geometry">
            <mxPoint x="320" y="640" as="sourcePoint" />
            <mxPoint x="180" y="640" as="targetPoint" />
          </mxGeometry>
        </mxCell>
        <mxCell id="ARCqItQjN_vqQXYxKfKU-9" value="&amp;nbsp;B0" style="text;html=1;strokeColor=none;fillColor=none;align=center;verticalAlign=middle;whiteSpace=wrap;rounded=0;" vertex="1" parent="1">
          <mxGeometry x="180" y="490" width="80" height="30" as="geometry" />
        </mxCell>
        <mxCell id="ARCqItQjN_vqQXYxKfKU-10" value="B0" style="text;html=1;strokeColor=none;fillColor=none;align=center;verticalAlign=middle;whiteSpace=wrap;rounded=0;" vertex="1" parent="1">
          <mxGeometry x="180" y="370" width="80" height="30" as="geometry" />
        </mxCell>
        <mxCell id="ARCqItQjN_vqQXYxKfKU-12" value="" style="endArrow=none;html=1;rounded=0;" edge="1" parent="1">
          <mxGeometry width="50" height="50" relative="1" as="geometry">
            <mxPoint x="219.81" y="420" as="sourcePoint" />
            <mxPoint x="219.81" y="400" as="targetPoint" />
          </mxGeometry>
        </mxCell>
        <mxCell id="ARCqItQjN_vqQXYxKfKU-13" value="" style="endArrow=none;html=1;rounded=0;" edge="1" parent="1">
          <mxGeometry width="50" height="50" relative="1" as="geometry">
            <mxPoint x="219.81" y="530" as="sourcePoint" />
            <mxPoint x="219.81" y="510" as="targetPoint" />
          </mxGeometry>
        </mxCell>
        <mxCell id="ARCqItQjN_vqQXYxKfKU-14" value="" style="endArrow=none;html=1;rounded=0;" edge="1" parent="1">
          <mxGeometry width="50" height="50" relative="1" as="geometry">
            <mxPoint x="219.81" y="650" as="sourcePoint" />
            <mxPoint x="219.81" y="630" as="targetPoint" />
          </mxGeometry>
        </mxCell>
      </root>
    </mxGraphModel>
  </diagram>
</mxfile>
